<svg xmlns="http://www.w3.org/2000/svg" xmlns:xlink="http://www.w3.org/1999/xlink" width="83" height="82" viewBox="0 0 83 82">
  <defs>
    <clipPath id="clip-path">
      <rect id="Rectangle_31" data-name="Rectangle 31" width="71" height="71" transform="translate(0 0)" fill="none"/>
    </clipPath>
  </defs>
  <g id="Groupe_93" data-name="Groupe 93" transform="translate(-1073 -1799)">
    <g id="Groupe_34" data-name="Groupe 34" transform="translate(1072.996 1799)">
      <g id="Groupe_19" data-name="Groupe 19" transform="translate(0.004 0)" clip-path="url(#clip-path)">
        <path id="Tracé_44" data-name="Tracé 44" d="M53.019,10.052H66.93V68.439H53.019ZM39.041,56.6h6.335V68.438H39.041Zm-13.909,0h6.335V68.438H25.132ZM3.579,10.052H17.49V68.439H3.579ZM23.066,55.427V68.44H19.554V5.508h31.4V68.44H47.443V55.427a1.008,1.008,0,0,0-.9-.9H37.871a1.006,1.006,0,0,0-.895.9V68.44H33.532V55.427a1.006,1.006,0,0,0-.895-.9H23.961a1.008,1.008,0,0,0-.9.9ZM53.02,6.609H66.93V7.986H53.02Zm-49.442,0h13.91V7.986H3.578ZM19.552,2.066h31.4V3.442h-31.4ZM17.487.895v3.65H2.406a1.007,1.007,0,0,0-.9.9v63H.891c-1.189,0-1.189,2.066,0,2.066h68.72c1.189,0,1.189-2.066,0-2.066h-.618v-63a1.008,1.008,0,0,0-.9-.9H53.017V.895a1.006,1.006,0,0,0-.9-.895H18.381a1.007,1.007,0,0,0-.9.895Z" transform="translate(-0.004 0)"/>
        <path id="Tracé_45" data-name="Tracé 45" d="M148.619,289.927h6.335v3.579h-6.335Zm-2.067-1.171v5.921a1.009,1.009,0,0,0,.9.9h8.677a1.007,1.007,0,0,0,.895-.9v-5.921a1.006,1.006,0,0,0-.895-.9h-8.677a1.007,1.007,0,0,0-.9.9" transform="translate(-123.493 -242.557)"/>
        <path id="Tracé_46" data-name="Tracé 46" d="M237.009,289.927h6.335v3.579h-6.335Zm-2.065-1.171v5.921a1.007,1.007,0,0,0,.895.9h8.677a1.008,1.008,0,0,0,.9-.9v-5.921a1.007,1.007,0,0,0-.9-.9h-8.677a1.006,1.006,0,0,0-.895.9" transform="translate(-197.974 -242.557)"/>
        <path id="Tracé_47" data-name="Tracé 47" d="M148.619,111.43h6.335v3.581h-6.335Zm-2.067-1.17v5.921a1.007,1.007,0,0,0,.9.9h8.677a1,1,0,0,0,.895-.9V110.26a1.006,1.006,0,0,0-.895-.9h-8.677a1.007,1.007,0,0,0-.9.9" transform="translate(-123.493 -92.153)"/>
        <path id="Tracé_48" data-name="Tracé 48" d="M237.009,111.43h6.335v3.581h-6.335Zm-2.065-1.17v5.921a1.006,1.006,0,0,0,.895.9h8.677a1.006,1.006,0,0,0,.9-.9V110.26a1.007,1.007,0,0,0-.9-.9h-8.677a1.006,1.006,0,0,0-.895.9" transform="translate(-197.974 -92.153)"/>
        <path id="Tracé_49" data-name="Tracé 49" d="M148.619,50.183h6.335v3.579h-6.335Zm-2.067-1.171v5.921a1.007,1.007,0,0,0,.9.9h8.677a1,1,0,0,0,.895-.9V49.012a1,1,0,0,0-.895-.895h-8.677a1.006,1.006,0,0,0-.9.895" transform="translate(-123.493 -40.544)"/>
        <path id="Tracé_50" data-name="Tracé 50" d="M237.009,50.183h6.335v3.579h-6.335Zm-2.065-1.171v5.921a1.006,1.006,0,0,0,.895.9h8.677a1.006,1.006,0,0,0,.9-.9V49.012a1.006,1.006,0,0,0-.9-.895h-8.677a1,1,0,0,0-.895.895" transform="translate(-197.974 -40.544)"/>
        <path id="Tracé_51" data-name="Tracé 51" d="M148.619,170.936h6.335v3.581h-6.335Zm-2.067-1.17v5.921a1.006,1.006,0,0,0,.9.895h8.677a1,1,0,0,0,.895-.895v-5.921a1,1,0,0,0-.895-.895h-8.677a1.006,1.006,0,0,0-.9.895" transform="translate(-123.493 -142.294)"/>
        <path id="Tracé_52" data-name="Tracé 52" d="M237.009,170.936h6.335v3.581h-6.335Zm-2.065-1.17v5.921a1,1,0,0,0,.895.895h8.677a1.006,1.006,0,0,0,.9-.895v-5.921a1.006,1.006,0,0,0-.9-.895h-8.677a1,1,0,0,0-.895.895" transform="translate(-197.974 -142.294)"/>
        <path id="Tracé_53" data-name="Tracé 53" d="M148.619,230.433h6.335v3.58h-6.335Zm-2.067-1.171v5.923a1.009,1.009,0,0,0,.9.9h8.677a1.007,1.007,0,0,0,.895-.9v-5.923a1.006,1.006,0,0,0-.895-.895h-8.677a1.007,1.007,0,0,0-.9.895" transform="translate(-123.493 -192.427)"/>
        <path id="Tracé_54" data-name="Tracé 54" d="M237.009,230.433h6.335v3.58h-6.335Zm-2.065-1.171v5.923a1.007,1.007,0,0,0,.895.9h8.677a1.008,1.008,0,0,0,.9-.9v-5.923a1.007,1.007,0,0,0-.9-.895h-8.677a1.006,1.006,0,0,0-.895.895" transform="translate(-197.974 -192.427)"/>
        <path id="Tracé_55" data-name="Tracé 55" d="M360.027,322.811h3.03v1.927h-3.03Zm-2.134-.964V325.7c0,.884.647,1.17,1.447,1.17h4.406c.8,0,1.447-.286,1.447-1.17v-3.856c0-.885-.646-1.171-1.447-1.171H359.34C358.54,320.676,357.893,320.962,357.893,321.847Z" transform="translate(-301.573 -270.209)"/>
        <path id="Tracé_56" data-name="Tracé 56" d="M360.027,263.311h3.03v1.927h-3.03Zm-2.134-.964V266.2c0,.884.647,1.169,1.447,1.169h4.406c.8,0,1.447-.285,1.447-1.169v-3.856c0-.884-.646-1.171-1.447-1.171H359.34C358.54,261.176,357.893,261.463,357.893,262.347Z" transform="translate(-301.573 -220.073)"/>
        <path id="Tracé_57" data-name="Tracé 57" d="M360.027,382.32h3.03v1.929h-3.03Zm-2.134-.964v3.856c0,.884.647,1.17,1.447,1.17h4.406c.8,0,1.447-.286,1.447-1.17v-3.856c0-.883-.646-1.169-1.447-1.169H359.34C358.54,380.187,357.893,380.474,357.893,381.356Z" transform="translate(-301.573 -320.354)"/>
        <path id="Tracé_58" data-name="Tracé 58" d="M45.867,84.813H48.9v1.927h-3.03Zm-2.134-.965V87.7c0,.884.646,1.17,1.447,1.17h4.406c.8,0,1.447-.286,1.447-1.17V83.848c0-.884-.647-1.169-1.447-1.169H45.18a1.808,1.808,0,0,0-1.049.26A1.248,1.248,0,0,0,43.733,83.848Z" transform="translate(-36.855 -69.667)"/>
        <path id="Tracé_59" data-name="Tracé 59" d="M360.027,84.813h3.03v1.927h-3.03Zm-2.134-.965V87.7c0,.884.647,1.17,1.447,1.17h4.406c.8,0,1.447-.286,1.447-1.17V83.848a1.245,1.245,0,0,0-.4-.909,1.809,1.809,0,0,0-1.049-.26H359.34C358.54,82.679,357.893,82.964,357.893,83.848Z" transform="translate(-301.573 -69.667)"/>
        <path id="Tracé_60" data-name="Tracé 60" d="M45.867,322.814H48.9v1.927h-3.03Zm-2.134-.964v3.856c0,.884.646,1.17,1.447,1.17h4.406a1.809,1.809,0,0,0,1.049-.261,1.241,1.241,0,0,0,.4-.909v-3.856c0-.885-.647-1.171-1.447-1.171H45.18c-.8,0-1.447.286-1.447,1.171Z" transform="translate(-36.855 -270.212)"/>
        <path id="Tracé_61" data-name="Tracé 61" d="M45.867,144.32H48.9v1.928h-3.03Zm-2.134-.964v3.856a1.25,1.25,0,0,0,.4.911,1.808,1.808,0,0,0,1.049.26h4.406c.8,0,1.447-.286,1.447-1.171v-3.856c0-.883-.647-1.169-1.447-1.169H45.18C44.379,142.187,43.733,142.474,43.733,143.356Z" transform="translate(-36.855 -119.81)"/>
        <path id="Tracé_62" data-name="Tracé 62" d="M45.867,203.818H48.9v1.928h-3.03Zm-2.134-.963v3.856c0,.883.646,1.17,1.447,1.17h4.406c.8,0,1.447-.287,1.447-1.17v-3.856c0-.884-.647-1.17-1.447-1.17H45.18a1.813,1.813,0,0,0-1.049.26,1.247,1.247,0,0,0-.4.91" transform="translate(-36.855 -169.943)"/>
        <path id="Tracé_63" data-name="Tracé 63" d="M360.027,203.818h3.03v1.928h-3.03Zm-2.134-.963v3.856c0,.883.647,1.17,1.447,1.17h4.406c.8,0,1.447-.287,1.447-1.17v-3.856a1.247,1.247,0,0,0-.4-.91,1.813,1.813,0,0,0-1.049-.26H359.34C358.54,201.684,357.893,201.97,357.893,202.854Z" transform="translate(-301.573 -169.943)"/>
        <path id="Tracé_64" data-name="Tracé 64" d="M360.027,144.32h3.03v1.928h-3.03Zm-2.134-.964v3.856c0,.885.647,1.171,1.447,1.171h4.406c.8,0,1.447-.286,1.447-1.171v-3.856c0-.883-.646-1.169-1.447-1.169H359.34C358.54,142.187,357.893,142.474,357.893,143.356Z" transform="translate(-301.573 -119.81)"/>
        <path id="Tracé_65" data-name="Tracé 65" d="M45.867,382.32H48.9v1.929h-3.03Zm-2.134-.964v3.856a1.249,1.249,0,0,0,.4.91,1.808,1.808,0,0,0,1.049.26h4.406c.8,0,1.447-.286,1.447-1.17v-3.856c0-.883-.647-1.169-1.447-1.169H45.18a1.808,1.808,0,0,0-1.049.26A1.246,1.246,0,0,0,43.733,381.356Z" transform="translate(-36.855 -320.354)"/>
        <path id="Tracé_66" data-name="Tracé 66" d="M45.867,263.311H48.9v1.927h-3.03Zm-2.134-.964V266.2a1.248,1.248,0,0,0,.4.91,1.813,1.813,0,0,0,1.049.259h4.406a1.819,1.819,0,0,0,1.049-.259,1.247,1.247,0,0,0,.4-.91v-3.856c0-.884-.647-1.171-1.447-1.171H45.18a1.822,1.822,0,0,0-1.049.26A1.25,1.25,0,0,0,43.733,262.347Z" transform="translate(-36.855 -220.073)"/>
      </g>
    </g>
    <circle id="Ellipse_18" data-name="Ellipse 18" cx="16.5" cy="16.5" r="16.5" transform="translate(1123 1848)"/>
    <text id="_" data-name="+" transform="translate(1134 1871)" fill="#fff" font-size="18" font-family="Work Sans" font-weight="600"><tspan x="0" y="0">+</tspan></text>
  </g>
</svg>
