<svg id="Calque_1" data-name="Calque 1" xmlns="http://www.w3.org/2000/svg" viewBox="0 0 52.5 44.42"><defs><style>.cls-1{fill:#050203;}</style></defs><path id="Tracé_10" data-name="Tracé 10" class="cls-1" d="M38.55,2a.61.61,0,1,0,0-1.21H15.71a.61.61,0,1,0,0,1.21Z" transform="translate(-0.88 -0.81)"/><path id="Tracé_11" data-name="Tracé 11" class="cls-1" d="M10.33,45.23h33.6a.61.61,0,0,0,.61-.61.61.61,0,0,0-.61-.61H10.33a.61.61,0,0,0-.61.61.61.61,0,0,0,.61.61" transform="translate(-0.88 -0.81)"/><path id="Tracé_12" data-name="Tracé 12" class="cls-1" d="M39.05,5a8.47,8.47,0,0,0-1.3-.49h0c-.34-.11-.67-.22-1-.31a24.77,24.77,0,0,0-7-1,.61.61,0,0,0-.58.61V40.58a.61.61,0,0,0,.6.61h9.79a.62.62,0,0,0,.61-.61.61.61,0,0,0-.61-.61h-3.9V12.14a3.41,3.41,0,0,0,1.93.6,4,4,0,0,0,4-4,4,4,0,0,0-.19-1.25,18,18,0,0,1,6,5.6L44,19h-.63a.6.6,0,0,0-.6.61h0a5.32,5.32,0,0,0,10.64.15v-.15a.61.61,0,0,0-.61-.61h-.62l-3.57-6.17a.64.64,0,0,0-.1-.13,20.11,20.11,0,0,0-9.43-7.6m1.29,3.72a2.76,2.76,0,0,1-2.75,2.76A2.21,2.21,0,0,1,36,7.76a.6.6,0,0,0,0-.86.62.62,0,0,0-.86,0,3.43,3.43,0,0,0-.73,3.77V40H30.38V4.42a24.93,24.93,0,0,1,6.07,1,21.06,21.06,0,0,1,2,.7,2.84,2.84,0,0,1,1.86,2.64m7.72,14.9A4.11,4.11,0,0,1,44,20.16h8.12a4.13,4.13,0,0,1-4.06,3.5m-2.69-4.72,2.69-4.65,2.68,4.65Z" transform="translate(-0.88 -0.81)"/><path id="Tracé_13" data-name="Tracé 13" class="cls-1" d="M5.78,12.64a1.13,1.13,0,0,0-.1.13L2.11,19H1.49a.61.61,0,0,0-.61.61h0a5.32,5.32,0,0,0,10.64,0,.61.61,0,0,0-.61-.61h-.62L6.93,13.12a17.94,17.94,0,0,1,6-5.6,4,4,0,0,0,3.78,5.21,3.41,3.41,0,0,0,1.93-.6V40H14.7a.61.61,0,0,0,0,1.22h9.79a.6.6,0,0,0,.6-.61h0V3.81a.61.61,0,0,0-.58-.61,24.37,24.37,0,0,0-7,1c-.33.09-.66.2-1,.31h0a8.1,8.1,0,0,0-1.3.49,20.17,20.17,0,0,0-9.43,7.6m.43,11a4.1,4.1,0,0,1-4.06-3.5h8.11a4.11,4.11,0,0,1-4.06,3.5M3.52,19,6.2,14.29,8.89,19ZM17.81,5.42a24.46,24.46,0,0,1,6.07-1V40H19.82V10.66a3.41,3.41,0,0,0-.73-3.76.61.61,0,0,0-.86.86,2.21,2.21,0,0,1,0,3.11,2.23,2.23,0,0,1-1.58.65,2.75,2.75,0,0,1-2.75-2.75,2.84,2.84,0,0,1,1.86-2.65,21.06,21.06,0,0,1,2-.7" transform="translate(-0.88 -0.81)"/></svg>