<svg id="Groupe_17" data-name="Groupe 17" xmlns="http://www.w3.org/2000/svg" xmlns:xlink="http://www.w3.org/1999/xlink" width="207.538" height="52" viewBox="0 0 207.538 52">
  <defs>
    <clipPath id="clip-path">
      <rect id="Rectangle_25" data-name="Rectangle 25" width="207.538" height="52" fill="none"/>
    </clipPath>
  </defs>
  <g id="Groupe_16" data-name="Groupe 16" clip-path="url(#clip-path)">
    <path id="Tracé_10" data-name="Tracé 10" d="M95.635,7.633a.608.608,0,0,0,0-1.216H72.8a.608.608,0,1,0,0,1.216Z" transform="translate(-57.969 -5.153)" fill="#080000"/>
    <path id="Tracé_11" data-name="Tracé 11" d="M45.461,226.936H79.068a.608.608,0,0,0,0-1.216H45.461a.608.608,0,0,0,0,1.216" transform="translate(-36.017 -181.253)" fill="#080000"/>
    <path id="Tracé_12" data-name="Tracé 12" d="M153.453,20.409a7.964,7.964,0,0,0-1.3-.486h0c-.342-.116-.676-.222-1-.316a24.4,24.4,0,0,0-7-1.034.608.608,0,0,0-.588.608V55.947a.608.608,0,0,0,.608.608h9.785a.608.608,0,1,0,0-1.216h-3.9V27.507a3.4,3.4,0,0,0,1.928.6,3.976,3.976,0,0,0,3.971-3.971,4.129,4.129,0,0,0-.186-1.247,18.14,18.14,0,0,1,5.961,5.6l-3.367,5.831h-.622a.608.608,0,0,0-.608.608,5.321,5.321,0,1,0,10.641,0,.608.608,0,0,0-.608-.608h-.621l-3.565-6.174a.618.618,0,0,0-.1-.131,20.133,20.133,0,0,0-9.428-7.6m1.287,3.725a2.758,2.758,0,0,1-2.755,2.755,2.2,2.2,0,0,1-1.558-3.763.608.608,0,1,0-.86-.86,3.417,3.417,0,0,0-.726,3.762v29.31h-4.062V19.793a24.773,24.773,0,0,1,6.069.992c.7.207,1.378.443,2.033.7a2.842,2.842,0,0,1,1.859,2.647m7.715,14.894a4.111,4.111,0,0,1-4.06-3.5h8.119a4.111,4.111,0,0,1-4.06,3.5m-2.687-4.713,2.687-4.654,2.687,4.654Z" transform="translate(-115.281 -14.911)" fill="#080000"/>
    <path id="Tracé_13" data-name="Tracé 13" d="M4.9,28.01a.613.613,0,0,0-.1.131L1.229,34.315H.608A.608.608,0,0,0,0,34.923a5.321,5.321,0,0,0,10.641,0,.608.608,0,0,0-.608-.608H9.412L6.045,28.483a18.139,18.139,0,0,1,5.961-5.6,4.134,4.134,0,0,0-.186,1.247A3.976,3.976,0,0,0,15.791,28.1a3.4,3.4,0,0,0,1.928-.6V55.339h-3.9a.608.608,0,0,0,0,1.216h9.785a.608.608,0,0,0,.608-.608V19.179a.608.608,0,0,0-.588-.608,24.382,24.382,0,0,0-7,1.034c-.322.094-.656.2-1,.316h0a7.968,7.968,0,0,0-1.3.486A20.13,20.13,0,0,0,4.9,28.01m.425,11.017a4.111,4.111,0,0,1-4.06-3.5H9.38a4.111,4.111,0,0,1-4.06,3.5M2.634,34.315l2.687-4.654,2.687,4.654ZM16.928,20.784A24.767,24.767,0,0,1,23,19.792V55.339H18.935V26.028a3.417,3.417,0,0,0-.726-3.762.608.608,0,0,0-.86.86,2.2,2.2,0,0,1-1.558,3.763,2.758,2.758,0,0,1-2.755-2.755,2.842,2.842,0,0,1,1.859-2.647c.655-.259,1.331-.5,2.033-.7" transform="translate(0 -14.91)" fill="#080000"/>
    <path id="Tracé_14" data-name="Tracé 14" d="M355.4,32.92h21.1v5.332h-27.3V0h6.2Z" transform="translate(-280.403 0)" fill="#1a1818"/>
    <path id="Tracé_15" data-name="Tracé 15" d="M525.415,38.251V0h15.069q6.9,0,10.084,2.782a9.7,9.7,0,0,1,3.188,7.708,8.773,8.773,0,0,1-1.739,5.361,7.879,7.879,0,0,1-5.1,2.985v.058a9.017,9.017,0,0,1,5.767,3.043,8.646,8.646,0,0,1,2.057,5.709,9.362,9.362,0,0,1-3.594,7.766q-3.594,2.84-10.432,2.84ZM531.5,16.459h8.52q7.3,0,7.3-5.622t-7.3-5.622H531.5Zm0,16.634h9.5a8.455,8.455,0,0,0,5.477-1.507,5.179,5.179,0,0,0,1.826-4.231,5.181,5.181,0,0,0-1.826-4.231,8.459,8.459,0,0,0-5.477-1.507h-9.5Z" transform="translate(-421.907)" fill="#1a1818"/>
    <path id="Tracé_16" data-name="Tracé 16" d="M720.167,38.251V0h15.069q6.9,0,10.084,2.782a9.7,9.7,0,0,1,3.188,7.708,8.773,8.773,0,0,1-1.739,5.361,7.879,7.879,0,0,1-5.1,2.985v.058a9.017,9.017,0,0,1,5.767,3.043,8.646,8.646,0,0,1,2.057,5.709,9.362,9.362,0,0,1-3.594,7.766q-3.594,2.84-10.432,2.84Zm6.085-21.792h8.52q7.3,0,7.3-5.622t-7.3-5.622h-8.52Zm0,16.634h9.505a8.455,8.455,0,0,0,5.477-1.507,5.179,5.179,0,0,0,1.826-4.231,5.181,5.181,0,0,0-1.826-4.231,8.459,8.459,0,0,0-5.477-1.507h-9.505Z" transform="translate(-578.293)" fill="#1a1818"/>
    <path id="Tracé_17" data-name="Tracé 17" d="M921.121,32.92h21.1v5.332h-27.3V0h6.2Z" transform="translate(-734.679 0)" fill="#1a1818"/>
    <path id="Tracé_18" data-name="Tracé 18" d="M340.583,236.272h4.18v.141h-4.341V229.78h.161Z" transform="translate(-273.358 -184.513)" fill="#1a1818"/>
    <path id="Tracé_19" data-name="Tracé 19" d="M369.167,239.18a1.634,1.634,0,0,0-.412-1.176,1.562,1.562,0,0,0-1.186-.432,2.125,2.125,0,0,0-1.1.276,1.671,1.671,0,0,0-.7.91l-.131-.1a1.746,1.746,0,0,1,.729-.925,2.275,2.275,0,0,1,1.2-.3,2.033,2.033,0,0,1,.954.206,1.394,1.394,0,0,1,.6.6,2.008,2.008,0,0,1,.206.945v2.593q0,.723.593.723a.613.613,0,0,0,.342-.08l-.01.141a.724.724,0,0,1-.362.08.846.846,0,0,1-.322-.071.6.6,0,0,1-.286-.266,1.181,1.181,0,0,1-.116-.588v-.462l.07-.06a1.432,1.432,0,0,1-.387.819,1.979,1.979,0,0,1-.764.487,2.672,2.672,0,0,1-.91.161,2.308,2.308,0,0,1-.864-.146,1.2,1.2,0,0,1-.553-.417,1.123,1.123,0,0,1-.191-.663,1.1,1.1,0,0,1,.377-.884,2.278,2.278,0,0,1,1.07-.452l2.181-.422v.141l-2.07.4a2.241,2.241,0,0,0-1.05.427,1.053,1.053,0,0,0,.03,1.588,1.777,1.777,0,0,0,1.09.286,2.462,2.462,0,0,0,.638-.09,2.3,2.3,0,0,0,.643-.286,1.584,1.584,0,0,0,.5-.5,1.369,1.369,0,0,0,.191-.739Z" transform="translate(-293.551 -190.657)" fill="#1a1818"/>
    <path id="Tracé_20" data-name="Tracé 20" d="M395.231,243.067a2.038,2.038,0,0,1-.95-.206,1.373,1.373,0,0,1-.6-.608,2.093,2.093,0,0,1-.206-.965v-3.346h.161v3.326a1.669,1.669,0,0,0,.427,1.226,1.612,1.612,0,0,0,1.2.432,2.112,2.112,0,0,0,.935-.191,1.909,1.909,0,0,0,.643-.492,2.122,2.122,0,0,0,.372-.633,1.806,1.806,0,0,0,.121-.613v-3.055h.161v5.025h-.161V241.63a1.877,1.877,0,0,1-.734,1.025,2.249,2.249,0,0,1-1.367.412" transform="translate(-315.957 -191.067)" fill="#1a1818"/>
    <path id="Tracé_21" data-name="Tracé 21" d="M422.548,242.557v-5.025h.161v1.306a2.17,2.17,0,0,1,.6-1,1.468,1.468,0,0,1,1.045-.407,1.261,1.261,0,0,1,.442.065.7.7,0,0,1,.271.176l-.09.121a.8.8,0,0,0-.231-.161,1.045,1.045,0,0,0-.412-.06,1.3,1.3,0,0,0-.834.3,2.012,2.012,0,0,0-.583.769,2.41,2.41,0,0,0-.211.995v2.924Z" transform="translate(-339.305 -190.657)" fill="#1a1818"/>
    <path id="Tracé_22" data-name="Tracé 22" d="M439.551,231.14a.207.207,0,1,1,.161-.06.217.217,0,0,1-.161.06m.08,6.009h-.161v-5.025h.161Z" transform="translate(-352.781 -185.25)" fill="#1a1818"/>
    <path id="Tracé_23" data-name="Tracé 23" d="M451.292,239.18A1.634,1.634,0,0,0,450.88,238a1.562,1.562,0,0,0-1.186-.432,2.125,2.125,0,0,0-1.1.276,1.67,1.67,0,0,0-.7.91l-.131-.1a1.746,1.746,0,0,1,.729-.925,2.275,2.275,0,0,1,1.2-.3,2.033,2.033,0,0,1,.954.206,1.394,1.394,0,0,1,.6.6,2.008,2.008,0,0,1,.206.945v2.593q0,.723.593.723a.613.613,0,0,0,.342-.08l-.01.141a.724.724,0,0,1-.362.08.846.846,0,0,1-.322-.071.6.6,0,0,1-.286-.266,1.181,1.181,0,0,1-.116-.588v-.462l.07-.06a1.432,1.432,0,0,1-.387.819,1.979,1.979,0,0,1-.764.487,2.672,2.672,0,0,1-.91.161,2.308,2.308,0,0,1-.864-.146,1.2,1.2,0,0,1-.553-.417,1.123,1.123,0,0,1-.191-.663,1.1,1.1,0,0,1,.377-.884,2.278,2.278,0,0,1,1.07-.452l2.181-.422v.141l-2.07.4a2.241,2.241,0,0,0-1.05.427,1.053,1.053,0,0,0,.03,1.588,1.777,1.777,0,0,0,1.09.286,2.462,2.462,0,0,0,.638-.09,2.3,2.3,0,0,0,.643-.286,1.584,1.584,0,0,0,.5-.5,1.369,1.369,0,0,0,.191-.739Z" transform="translate(-359.498 -190.657)" fill="#1a1818"/>
    <path id="Tracé_24" data-name="Tracé 24" d="M475.9,242.557v-5.025h.161v1.407l-.01-.03a1.866,1.866,0,0,1,.4-.759,2.022,2.022,0,0,1,.724-.528,2.39,2.39,0,0,1,.975-.191,2.151,2.151,0,0,1,1,.216,1.53,1.53,0,0,1,.643.618,1.985,1.985,0,0,1,.226.985v3.306h-.161v-3.286a1.649,1.649,0,0,0-.467-1.251,1.763,1.763,0,0,0-1.271-.447,2.061,2.061,0,0,0-1.789.99,1.836,1.836,0,0,0-.271.97v3.025Z" transform="translate(-382.149 -190.657)" fill="#1a1818"/>
    <path id="Tracé_25" data-name="Tracé 25" d="M505.779,242.657a2.3,2.3,0,0,1-1.191-.312,2.19,2.19,0,0,1-.834-.9,2.994,2.994,0,0,1-.307-1.4,3.03,3.03,0,0,1,.3-1.407,2.213,2.213,0,0,1,.809-.894,2.136,2.136,0,0,1,1.14-.311,2.066,2.066,0,0,1,1.136.3,1.96,1.96,0,0,1,.729.859,3.169,3.169,0,0,1,.256,1.332v.07h-4.291v-.151h4.221l-.07.06a2.7,2.7,0,0,0-.518-1.683,1.748,1.748,0,0,0-1.462-.648,1.97,1.97,0,0,0-1.06.3,2.051,2.051,0,0,0-.754.849,2.936,2.936,0,0,0-.276,1.326,2.894,2.894,0,0,0,.281,1.327,2.049,2.049,0,0,0,.774.849,2.23,2.23,0,0,0,2.231-.005,1.906,1.906,0,0,0,.754-.824l.131.07a1.9,1.9,0,0,1-.472.638,2.186,2.186,0,0,1-.693.412,2.375,2.375,0,0,1-.834.146" transform="translate(-404.268 -190.657)" fill="#1a1818"/>
    <path id="Tracé_26" data-name="Tracé 26" d="M547.469,236.412V229.78H549.8a2.343,2.343,0,0,1,1.517.422,1.533,1.533,0,0,1,.512,1.256,1.625,1.625,0,0,1-.327,1.05,1.665,1.665,0,0,1-1,.548v.01a1.854,1.854,0,0,1,1.115.518,1.562,1.562,0,0,1,.4,1.131,1.5,1.5,0,0,1-.563,1.266,2.691,2.691,0,0,1-1.658.432ZM547.63,233H549.8q1.869,0,1.869-1.528,0-1.547-1.869-1.547H547.63Zm0,3.276H549.8a2.513,2.513,0,0,0,1.537-.4,1.578,1.578,0,0,0,0-2.346,2.539,2.539,0,0,0-1.537-.392H547.63Z" transform="translate(-439.617 -184.513)" fill="#1a1818"/>
    <path id="Tracé_27" data-name="Tracé 27" d="M578.417,242.657a2.3,2.3,0,0,1-1.191-.312,2.19,2.19,0,0,1-.834-.9,2.993,2.993,0,0,1-.307-1.4,3.03,3.03,0,0,1,.3-1.407,2.213,2.213,0,0,1,.809-.894,2.136,2.136,0,0,1,1.14-.311,2.066,2.066,0,0,1,1.135.3,1.96,1.96,0,0,1,.729.859,3.17,3.17,0,0,1,.256,1.332v.07h-4.291v-.151h4.221l-.07.06a2.7,2.7,0,0,0-.518-1.683,1.748,1.748,0,0,0-1.462-.648,1.97,1.97,0,0,0-1.06.3,2.052,2.052,0,0,0-.754.849,2.936,2.936,0,0,0-.276,1.326,2.894,2.894,0,0,0,.281,1.327,2.049,2.049,0,0,0,.774.849,2.23,2.23,0,0,0,2.231-.005,1.906,1.906,0,0,0,.754-.824l.131.07a1.9,1.9,0,0,1-.472.638,2.186,2.186,0,0,1-.693.412,2.375,2.375,0,0,1-.834.146" transform="translate(-462.596 -190.657)" fill="#1a1818"/>
    <path id="Tracé_28" data-name="Tracé 28" d="M605.059,242.557v-5.025h.161v1.306a2.17,2.17,0,0,1,.6-1,1.468,1.468,0,0,1,1.045-.407,1.261,1.261,0,0,1,.442.065.7.7,0,0,1,.271.176l-.09.121a.8.8,0,0,0-.231-.161,1.045,1.045,0,0,0-.412-.06,1.3,1.3,0,0,0-.834.3,2.012,2.012,0,0,0-.583.769,2.41,2.41,0,0,0-.211.995v2.924Z" transform="translate(-485.861 -190.657)" fill="#1a1818"/>
    <path id="Tracé_29" data-name="Tracé 29" d="M622.555,242.557v-5.025h.161v1.407l-.01-.03a1.866,1.866,0,0,1,.4-.759,2.022,2.022,0,0,1,.724-.528,2.39,2.39,0,0,1,.975-.191,2.151,2.151,0,0,1,1,.216,1.53,1.53,0,0,1,.643.618,1.985,1.985,0,0,1,.226.985v3.306h-.161v-3.286a1.649,1.649,0,0,0-.467-1.251,1.763,1.763,0,0,0-1.271-.447,2.061,2.061,0,0,0-1.789.99,1.836,1.836,0,0,0-.271.97v3.025Z" transform="translate(-499.911 -190.657)" fill="#1a1818"/>
    <path id="Tracé_30" data-name="Tracé 30" d="M653.6,239.18a1.634,1.634,0,0,0-.412-1.176,1.562,1.562,0,0,0-1.186-.432,2.125,2.125,0,0,0-1.1.276,1.671,1.671,0,0,0-.7.91l-.131-.1a1.745,1.745,0,0,1,.729-.925,2.275,2.275,0,0,1,1.2-.3,2.033,2.033,0,0,1,.954.206,1.4,1.4,0,0,1,.6.6,2.009,2.009,0,0,1,.206.945v2.593q0,.723.593.723a.613.613,0,0,0,.342-.08l-.01.141a.724.724,0,0,1-.362.08.846.846,0,0,1-.322-.071.6.6,0,0,1-.286-.266,1.181,1.181,0,0,1-.116-.588v-.462l.07-.06a1.432,1.432,0,0,1-.387.819,1.979,1.979,0,0,1-.764.487,2.672,2.672,0,0,1-.91.161,2.308,2.308,0,0,1-.864-.146,1.2,1.2,0,0,1-.553-.417,1.123,1.123,0,0,1-.191-.663,1.1,1.1,0,0,1,.377-.884,2.278,2.278,0,0,1,1.07-.452l2.181-.422v.141l-2.07.4a2.241,2.241,0,0,0-1.05.427,1.053,1.053,0,0,0,.03,1.588,1.777,1.777,0,0,0,1.09.286,2.463,2.463,0,0,0,.638-.09,2.3,2.3,0,0,0,.643-.286,1.584,1.584,0,0,0,.5-.5,1.369,1.369,0,0,0,.191-.739Z" transform="translate(-521.947 -190.657)" fill="#1a1818"/>
    <path id="Tracé_31" data-name="Tracé 31" d="M678.207,242.557v-5.025h.161v1.306a2.17,2.17,0,0,1,.6-1,1.468,1.468,0,0,1,1.045-.407,1.261,1.261,0,0,1,.442.065.7.7,0,0,1,.271.176l-.09.121a.8.8,0,0,0-.231-.161,1.045,1.045,0,0,0-.412-.06,1.3,1.3,0,0,0-.834.3,2.012,2.012,0,0,0-.583.769,2.411,2.411,0,0,0-.211.995v2.924Z" transform="translate(-544.599 -190.657)" fill="#1a1818"/>
    <path id="Tracé_32" data-name="Tracé 32" d="M694.637,233.646a2.308,2.308,0,0,1-1.206-.311,2.072,2.072,0,0,1-.809-.9,3.586,3.586,0,0,1,0-2.809,2.08,2.08,0,0,1,.809-.894,2.31,2.31,0,0,1,1.206-.311,2.068,2.068,0,0,1,1.321.432,2.14,2.14,0,0,1,.739,1.226l-.01.02V226.21h.161v7.336h-.161v-1.6l.01.02a2.191,2.191,0,0,1-.4.91,1.911,1.911,0,0,1-.713.573,2.219,2.219,0,0,1-.945.2m.03-.141a1.848,1.848,0,0,0,1.04-.3,2.032,2.032,0,0,0,.718-.859,3.435,3.435,0,0,0,0-2.628,2.051,2.051,0,0,0-.713-.854,1.84,1.84,0,0,0-1.045-.3,2.03,2.03,0,0,0-1.573.653,3.065,3.065,0,0,0,0,3.638,2.03,2.03,0,0,0,1.573.653" transform="translate(-555.945 -181.646)" fill="#1a1818"/>
    <path id="Tracé_33" data-name="Tracé 33" d="M738.958,236.412V229.78h2.332a2.343,2.343,0,0,1,1.517.422,1.533,1.533,0,0,1,.512,1.256,1.625,1.625,0,0,1-.327,1.05,1.665,1.665,0,0,1-1,.548v.01a1.854,1.854,0,0,1,1.115.518,1.562,1.562,0,0,1,.4,1.131,1.5,1.5,0,0,1-.563,1.266,2.691,2.691,0,0,1-1.658.432Zm.161-3.417h2.171q1.869,0,1.869-1.528,0-1.547-1.869-1.547h-2.171Zm0,3.276h2.171a2.513,2.513,0,0,0,1.537-.4,1.578,1.578,0,0,0,0-2.346,2.539,2.539,0,0,0-1.537-.392h-2.171Z" transform="translate(-593.382 -184.513)" fill="#1a1818"/>
    <path id="Tracé_34" data-name="Tracé 34" d="M770.762,243.067a2.038,2.038,0,0,1-.95-.206,1.373,1.373,0,0,1-.6-.608,2.093,2.093,0,0,1-.206-.965v-3.346h.161v3.326a1.669,1.669,0,0,0,.427,1.226,1.612,1.612,0,0,0,1.2.432,2.112,2.112,0,0,0,.935-.191,1.91,1.91,0,0,0,.643-.492,2.121,2.121,0,0,0,.372-.633,1.806,1.806,0,0,0,.121-.613v-3.055h.161v5.025h-.161V241.63a1.877,1.877,0,0,1-.734,1.025,2.249,2.249,0,0,1-1.367.412" transform="translate(-617.508 -191.067)" fill="#1a1818"/>
    <path id="Tracé_35" data-name="Tracé 35" d="M797.671,242.657a2.747,2.747,0,0,1-1.342-.307,1.349,1.349,0,0,1-.7-.909l.151-.07a1.279,1.279,0,0,0,.643.854,2.551,2.551,0,0,0,1.276.291,2.186,2.186,0,0,0,1.271-.327,1.02,1.02,0,0,0,.467-.879.9.9,0,0,0-.246-.643,1.763,1.763,0,0,0-.91-.4l-1.146-.251a1.884,1.884,0,0,1-.99-.467,1.058,1.058,0,0,1-.3-.749,1.1,1.1,0,0,1,.241-.7,1.651,1.651,0,0,1,.663-.487,2.4,2.4,0,0,1,.955-.181,2.288,2.288,0,0,1,1.246.3,1.429,1.429,0,0,1,.613.955l-.141.08a1.363,1.363,0,0,0-.568-.909,2.068,2.068,0,0,0-1.151-.287,2.3,2.3,0,0,0-.874.156,1.5,1.5,0,0,0-.6.422.924.924,0,0,0-.221.608.971.971,0,0,0,.256.668,1.647,1.647,0,0,0,.879.427l1.166.261a2.035,2.035,0,0,1,1,.452,1.017,1.017,0,0,1,.286.744,1.143,1.143,0,0,1-.236.718,1.461,1.461,0,0,1-.668.467,2.944,2.944,0,0,1-1.025.161" transform="translate(-638.89 -190.657)" fill="#1a1818"/>
    <path id="Tracé_36" data-name="Tracé 36" d="M822.019,231.14a.207.207,0,1,1,.161-.06.217.217,0,0,1-.161.06m.08,6.009h-.161v-5.025h.161Z" transform="translate(-659.902 -185.25)" fill="#1a1818"/>
    <path id="Tracé_37" data-name="Tracé 37" d="M832,242.557v-5.025h.161v1.407l-.01-.03a1.866,1.866,0,0,1,.4-.759,2.022,2.022,0,0,1,.724-.528,2.39,2.39,0,0,1,.975-.191,2.151,2.151,0,0,1,1,.216,1.53,1.53,0,0,1,.643.618,1.985,1.985,0,0,1,.226.985v3.306h-.161v-3.286a1.649,1.649,0,0,0-.467-1.251,1.763,1.763,0,0,0-1.271-.447,2.061,2.061,0,0,0-1.789.99,1.836,1.836,0,0,0-.271.97v3.025Z" transform="translate(-668.094 -190.657)" fill="#1a1818"/>
    <path id="Tracé_38" data-name="Tracé 38" d="M861.875,242.657a2.3,2.3,0,0,1-1.191-.312,2.19,2.19,0,0,1-.834-.9,2.993,2.993,0,0,1-.307-1.4,3.031,3.031,0,0,1,.3-1.407,2.213,2.213,0,0,1,.809-.894,2.136,2.136,0,0,1,1.14-.311,2.066,2.066,0,0,1,1.135.3,1.961,1.961,0,0,1,.729.859,3.17,3.17,0,0,1,.256,1.332v.07h-4.291v-.151h4.221l-.07.06a2.7,2.7,0,0,0-.518-1.683,1.748,1.748,0,0,0-1.462-.648,1.97,1.97,0,0,0-1.06.3,2.051,2.051,0,0,0-.754.849,2.936,2.936,0,0,0-.276,1.326,2.894,2.894,0,0,0,.281,1.327,2.048,2.048,0,0,0,.774.849,2.23,2.23,0,0,0,2.231-.005,1.905,1.905,0,0,0,.754-.824l.131.07a1.9,1.9,0,0,1-.472.638,2.186,2.186,0,0,1-.693.412,2.375,2.375,0,0,1-.834.146" transform="translate(-690.212 -190.657)" fill="#1a1818"/>
    <path id="Tracé_39" data-name="Tracé 39" d="M888.11,242.657a2.746,2.746,0,0,1-1.342-.307,1.349,1.349,0,0,1-.7-.909l.151-.07a1.279,1.279,0,0,0,.643.854,2.551,2.551,0,0,0,1.276.291,2.186,2.186,0,0,0,1.271-.327,1.02,1.02,0,0,0,.468-.879.9.9,0,0,0-.246-.643,1.763,1.763,0,0,0-.91-.4l-1.146-.251a1.884,1.884,0,0,1-.99-.467,1.058,1.058,0,0,1-.3-.749,1.1,1.1,0,0,1,.241-.7,1.65,1.65,0,0,1,.663-.487,2.4,2.4,0,0,1,.955-.181,2.288,2.288,0,0,1,1.246.3,1.429,1.429,0,0,1,.613.955l-.141.08a1.363,1.363,0,0,0-.568-.909,2.068,2.068,0,0,0-1.151-.287,2.3,2.3,0,0,0-.874.156,1.5,1.5,0,0,0-.6.422.924.924,0,0,0-.221.608.971.971,0,0,0,.256.668,1.647,1.647,0,0,0,.879.427l1.166.261a2.035,2.035,0,0,1,1,.452,1.016,1.016,0,0,1,.286.744,1.144,1.144,0,0,1-.236.718,1.462,1.462,0,0,1-.668.467,2.945,2.945,0,0,1-1.025.161" transform="translate(-711.513 -190.657)" fill="#1a1818"/>
    <path id="Tracé_40" data-name="Tracé 40" d="M912.543,242.657a2.746,2.746,0,0,1-1.342-.307,1.349,1.349,0,0,1-.7-.909l.151-.07a1.279,1.279,0,0,0,.643.854,2.551,2.551,0,0,0,1.276.291,2.186,2.186,0,0,0,1.271-.327,1.02,1.02,0,0,0,.468-.879.9.9,0,0,0-.246-.643,1.763,1.763,0,0,0-.91-.4l-1.146-.251a1.883,1.883,0,0,1-.99-.467,1.058,1.058,0,0,1-.3-.749,1.1,1.1,0,0,1,.241-.7,1.65,1.65,0,0,1,.663-.487,2.4,2.4,0,0,1,.955-.181,2.288,2.288,0,0,1,1.246.3,1.429,1.429,0,0,1,.613.955l-.141.08a1.363,1.363,0,0,0-.568-.909,2.069,2.069,0,0,0-1.151-.287,2.3,2.3,0,0,0-.874.156,1.5,1.5,0,0,0-.6.422.924.924,0,0,0-.221.608.971.971,0,0,0,.256.668,1.647,1.647,0,0,0,.879.427l1.166.261a2.035,2.035,0,0,1,1,.452,1.016,1.016,0,0,1,.286.744,1.143,1.143,0,0,1-.236.718,1.461,1.461,0,0,1-.668.467,2.945,2.945,0,0,1-1.025.161" transform="translate(-731.132 -190.657)" fill="#1a1818"/>
    <path id="Tracé_41" data-name="Tracé 41" d="M952.593,236.272h4.18v.141h-4.341V229.78h.161Z" transform="translate(-764.801 -184.513)" fill="#1a1818"/>
    <path id="Tracé_42" data-name="Tracé 42" d="M981.177,239.18a1.634,1.634,0,0,0-.412-1.176,1.562,1.562,0,0,0-1.186-.432,2.125,2.125,0,0,0-1.1.276,1.671,1.671,0,0,0-.7.91l-.131-.1a1.745,1.745,0,0,1,.729-.925,2.275,2.275,0,0,1,1.2-.3,2.033,2.033,0,0,1,.954.206,1.394,1.394,0,0,1,.6.6,2.008,2.008,0,0,1,.206.945v2.593q0,.723.593.723a.613.613,0,0,0,.342-.08l-.01.141a.725.725,0,0,1-.362.08.846.846,0,0,1-.322-.071.6.6,0,0,1-.286-.266,1.181,1.181,0,0,1-.116-.588v-.462l.07-.06a1.432,1.432,0,0,1-.387.819,1.979,1.979,0,0,1-.764.487,2.672,2.672,0,0,1-.91.161,2.308,2.308,0,0,1-.864-.146,1.2,1.2,0,0,1-.553-.417,1.123,1.123,0,0,1-.191-.663,1.1,1.1,0,0,1,.377-.884,2.278,2.278,0,0,1,1.07-.452l2.181-.422v.141l-2.07.4a2.241,2.241,0,0,0-1.05.427,1.053,1.053,0,0,0,.03,1.588,1.777,1.777,0,0,0,1.09.286,2.462,2.462,0,0,0,.638-.09,2.3,2.3,0,0,0,.643-.286,1.584,1.584,0,0,0,.5-.5,1.369,1.369,0,0,0,.191-.739Z" transform="translate(-784.994 -190.657)" fill="#1a1818"/>
    <path id="Tracé_43" data-name="Tracé 43" d="M1009.6,237.942h.171l-1.668,5.025h-.161l-1.789-4.793-1.8,4.793h-.161l-1.668-5.025h.171l1.578,4.793,1.789-4.793h.171l1.789,4.793Z" transform="translate(-805.025 -191.067)" fill="#1a1818"/>
  </g>
</svg>
