<svg id="Calque_1" data-name="Calque 1" xmlns="http://www.w3.org/2000/svg" viewBox="0 0 52.4 42.1"><defs><style>.cls-1{fill:#fff;}</style></defs><path id="Tracé_11" data-name="Tracé 11" class="cls-1" d="M9.9,43.1H43.5a.65.65,0,0,0,.6-.6h0a.65.65,0,0,0-.6-.6H9.9a.65.65,0,0,0-.6.6h0a.65.65,0,0,0,.6.6h0" transform="translate(-0.5 -1)"/><path id="Tracé_12" data-name="Tracé 12" class="cls-1" d="M38.6,2.8a6.94,6.94,0,0,0-1.3-.5h0c-.3-.1-.7-.2-1-.3a23.7,23.7,0,0,0-7-1,.65.65,0,0,0-.6.6V38.4a.65.65,0,0,0,.6.6h9.8a.6.6,0,0,0,0-1.2H35.2V10a3.29,3.29,0,0,0,1.9.6,4,4,0,0,0,4-4,5,5,0,0,0-.2-1.2,17.89,17.89,0,0,1,6,5.6l-3.4,5.9h-.6a.65.65,0,0,0-.6.6h0a5.3,5.3,0,1,0,10.6.2v-.1a.65.65,0,0,0-.6-.6h-.6l-3.6-6.2-.1-.1a19.64,19.64,0,0,0-9.4-7.9m1.3,3.9a2.8,2.8,0,0,1-2.8,2.8,2.16,2.16,0,0,1-2.3-2.1,2.19,2.19,0,0,1,.7-1.7.61.61,0,0,0,0-.8h0a.75.75,0,0,0-.9,0,3.36,3.36,0,0,0-.7,3.8V38h-4V2.3a21.05,21.05,0,0,1,6.1,1A15.87,15.87,0,0,1,38,4a2.83,2.83,0,0,1,1.9,2.7m7.7,14.8a4.08,4.08,0,0,1-4-3.5h8.1a4.11,4.11,0,0,1-4.1,3.5m-2.7-4.7,2.7-4.6,2.7,4.6Z" transform="translate(-0.5 -1)"/><path id="Tracé_13" data-name="Tracé 13" class="cls-1" d="M5.4,10.5l-.1.1L1.7,16.8H1.1a.65.65,0,0,0-.6.6h0a5.34,5.34,0,0,0,5.3,5.3,5.34,5.34,0,0,0,5.3-5.3.65.65,0,0,0-.6-.6H9.9L6.5,11a17.89,17.89,0,0,1,6-5.6,3.93,3.93,0,0,0,2.6,5,5,5,0,0,0,1.2.2,3.08,3.08,0,0,0,1.9-.6V37.9H14.3a.6.6,0,1,0,0,1.2h9.8a.65.65,0,0,0,.6-.6h0V1.6a.65.65,0,0,0-.6-.6,23.7,23.7,0,0,0-7,1c-.3.1-.7.2-1,.3h0a6.94,6.94,0,0,0-1.3.5,19.25,19.25,0,0,0-9.4,7.7m.4,10.9a4.18,4.18,0,0,1-4.1-3.5H9.8a4.08,4.08,0,0,1-4,3.5M3.1,16.8l2.7-4.7,2.7,4.7ZM17.4,3.3a25.09,25.09,0,0,1,6.1-1V37.9H19.4V8.5a3.36,3.36,0,0,0-.7-3.8.64.64,0,0,0-.9.1.61.61,0,0,0,0,.8,2.12,2.12,0,0,1,0,3.1,1.91,1.91,0,0,1-1.6.6,2.8,2.8,0,0,1-2.8-2.8,2.88,2.88,0,0,1,1.9-2.7,16,16,0,0,0,2.1-.5" transform="translate(-0.5 -1)"/></svg>