<?xml version="1.0" encoding="utf-8"?>
<!-- Generator: Adobe Illustrator 26.0.3, SVG Export Plug-In . SVG Version: 6.00 Build 0)  -->
<svg version="1.1" id="Calque_1" xmlns="http://www.w3.org/2000/svg" xmlns:xlink="http://www.w3.org/1999/xlink" x="0px" y="0px"
	 viewBox="0 0 53.6 43.1" style="enable-background:new 0 0 53.6 43.1;" xml:space="preserve">
<style type="text/css">
	.st0{fill:#050203;}
</style>
<path id="Tracé_11" class="st0" d="M9.9,43.1h33.6c0.3,0,0.6-0.3,0.6-0.6l0,0c0-0.3-0.3-0.6-0.6-0.6l0,0H9.9
	c-0.3,0-0.6,0.3-0.6,0.6l0,0C9.3,42.8,9.6,43.1,9.9,43.1L9.9,43.1"/>
<path id="Tracé_12" class="st0" d="M38.6,2.8c-0.4-0.2-0.9-0.4-1.3-0.5l0,0c-0.3-0.1-0.7-0.2-1-0.3c-2.3-0.7-4.6-1-7-1
	c-0.3,0-0.6,0.3-0.6,0.6v36.8c0,0.3,0.3,0.6,0.6,0.6h9.8c0.3,0,0.6-0.3,0.6-0.6c0-0.3-0.3-0.6-0.6-0.6l0,0h-3.9V10
	c0.6,0.4,1.2,0.6,1.9,0.6c2.2,0,4-1.8,4-4c0-0.4-0.1-0.8-0.2-1.2c2.4,1.4,4.5,3.3,6,5.6l-3.4,5.9h-0.6c-0.3,0-0.6,0.3-0.6,0.6
	c0,0,0,0,0,0l0,0c0,2.9,2.3,5.4,5.2,5.4c2.9,0,5.4-2.3,5.4-5.2v-0.1c0-0.3-0.3-0.6-0.6-0.6l0,0h-0.6l-3.6-6.2c0,0-0.1-0.1-0.1-0.1
	C45.8,7.1,42.5,4.4,38.6,2.8 M39.9,6.7c0,1.5-1.2,2.8-2.8,2.8c-1.2,0.1-2.3-0.9-2.3-2.1c0-0.6,0.2-1.3,0.7-1.7
	c0.2-0.2,0.2-0.6,0-0.8c0,0,0,0,0,0c-0.2-0.2-0.6-0.2-0.9,0c-1,1-1.3,2.5-0.7,3.8v29.3h-4V2.3C32,2.3,34,2.7,36,3.3
	c0.7,0.2,1.3,0.4,2,0.7C39.1,4.4,39.9,5.4,39.9,6.7 M47.6,21.5c-2,0-3.7-1.5-4-3.5h8.1C51.4,20,49.7,21.5,47.6,21.5 M44.9,16.8
	l2.7-4.6l2.7,4.6H44.9z"/>
<path id="Tracé_13" class="st0" d="M5.4,10.5c0,0-0.1,0.1-0.1,0.1l-3.6,6.2H1.1c-0.3,0-0.6,0.3-0.6,0.6l0,0l0,0
	c0,2.9,2.4,5.3,5.3,5.3c2.9,0,5.3-2.4,5.3-5.3c0-0.3-0.3-0.6-0.6-0.6l0,0H9.9L6.5,11c1.5-2.3,3.6-4.2,6-5.6c-0.7,2.1,0.5,4.4,2.6,5
	c0.4,0.1,0.8,0.2,1.2,0.2c0.7,0,1.4-0.2,1.9-0.6v27.9h-3.9c-0.3,0-0.6,0.3-0.6,0.6s0.3,0.6,0.6,0.6h9.8c0.3,0,0.6-0.3,0.6-0.6
	c0,0,0,0,0,0l0,0V1.6c0-0.3-0.3-0.6-0.6-0.6c-2.4,0-4.7,0.3-7,1c-0.3,0.1-0.7,0.2-1,0.3l0,0c-0.4,0.1-0.9,0.3-1.3,0.5
	C10.9,4.3,7.6,7,5.4,10.5 M5.8,21.4c-2,0-3.8-1.5-4.1-3.5h8.1C9.5,19.9,7.8,21.4,5.8,21.4 M3.1,16.8l2.7-4.7l2.7,4.7H3.1z M17.4,3.3
	c2-0.6,4-0.9,6.1-1v35.6h-4.1V8.5c0.6-1.3,0.3-2.8-0.7-3.8c-0.3-0.2-0.6-0.2-0.9,0.1c-0.2,0.2-0.2,0.6,0,0.8c0.9,0.9,0.9,2.2,0,3.1
	c-0.4,0.4-1,0.7-1.6,0.6c-1.5,0-2.8-1.2-2.8-2.8c0-1.2,0.7-2.2,1.9-2.7C16,3.7,16.7,3.5,17.4,3.3"/>
</svg>
